<?xml version="1.0" encoding="UTF-8" standalone="no"?>
<svg xmlns="http://www.w3.org/2000/svg" width="64" height="64" viewBox="0 0 64 64">
  <defs>
    <linearGradient id="surface" x1="0" y1="0" x2="1" y2="1">
      <stop offset="0" stop-color="#9ecfff"/>
      <stop offset="1" stop-color="#2f80c0"/>
    </linearGradient>
  </defs>
  <path d="M8 42 C18 18 46 16 56 30 C47 50 21 53 8 42 Z" fill="url(#surface)" stroke="#123c5a" stroke-width="2"/>
  <path d="M12 39 C24 30 42 25 53 29" fill="none" stroke="#ffffff" stroke-width="2" opacity="0.85"/>
  <path d="M10 43 C23 45 42 42 55 34" fill="none" stroke="#ffffff" stroke-width="2" opacity="0.85"/>
  <path d="M20 25 C25 35 25 44 22 51" fill="none" stroke="#0b2b42" stroke-width="2" opacity="0.75"/>
  <path d="M33 20 C36 32 35 44 31 53" fill="none" stroke="#0b2b42" stroke-width="2" opacity="0.75"/>
  <path d="M47 22 C47 33 43 43 38 50" fill="none" stroke="#0b2b42" stroke-width="2" opacity="0.75"/>
  <circle cx="20" cy="25" r="2.5" fill="#ef2929" stroke="#5c0000" stroke-width="1"/>
  <circle cx="33" cy="20" r="2.5" fill="#ef2929" stroke="#5c0000" stroke-width="1"/>
  <circle cx="47" cy="22" r="2.5" fill="#ef2929" stroke="#5c0000" stroke-width="1"/>
</svg>
